<svg xmlns="http://www.w3.org/2000/svg" aria-label="Deedo" viewBox="0 0 997 1182"><path fill="#123368" fill-rule="evenodd" d="M486.9 10.7 342 148 27.5 447l-13 12.5 80.7.3 80.8.2.3 176.8.2 176.7 2.3 8.2a100 100 0 0 0 70.1 69.1l9.6 2.7 116.3.3 116.2.3V742.8l-20.7.4-20.8.3v107h-92c-102.2 0-97.5.3-110.9-6.7a62 62 0 0 1-22-22c-5.8-12-5.6-5.1-5.6-145V548h107V356l82.5.2 82.5.3V119.3l-4.9-3a22.8 22.8 0 1 1 27.7-36c10.3 9.6 8.6 28.3-3.4 35.6l-4.3 2.6-.3 54.5a9905 9905 0 0 0 0 126.6l.2 56 14.3 1.2q49.2 4.1 90.2 31c48.8 31.8 79.1 85.8 83.1 147.9l.7 10.3H821v-86h80.5c44.3 0 80.5-.3 80.5-.8s-31-30.4-79.5-76.2a22407 22407 0 0 1-101.8-96.8L773 259.9V97H662v28.6a172 172 0 0 1-1 28.2c-.8-.3-34.2-31.7-61.5-57.8-11-10.6-82.7-78.6-95.6-90.8L498.3 0zm6.6 76.5Q488 90 488 97a10.1 10.1 0 0 0 19.4 4.4c4.3-9-5.4-19-13.9-14.3m-61.3 44c-16.9 8.3-17.2 29.6-.5 40.8l2.1 1.5.6 64.8.7 64.7H405v15h44V173.2l2.6-.6a28 28 0 0 0 12.4-13c2-6 .9-14.6-2.6-20.3a23.4 23.4 0 0 0-29.2-8.2m110.7.7c-8 4.2-11.4 10.1-11.4 20.2 0 9.5 2.8 14.5 10.5 18.8l5 2.7V319l2.3.4c29.7 5.4 53 14 76.5 28.5a223 223 0 0 1 102.5 149.6l1.3 8 24.2.3 24.2.2.2-44.7.3-44.8 46.4-.5 46.3-.5-25.3-24A32159 32159 0 0 1 694.6 248l-49.4-47c-30-28.5-36-34-37-34s-9.2 8.5-9.2 9.4c0 .4 33.6 32.7 73 70.2l158 150.1 5.5 5.2h-35.7l-35.8.1v89h-22l-.6-2.7a238 238 0 0 0-24.2-64.7C684.4 366.2 632 324.9 572.5 310l-11-2.8-.2-66.9-.2-66.8 4.7-3c3.4-2.2 5.5-4.5 7.5-8.4a22.4 22.4 0 0 0-30.4-30.3M435 143.9c-7 6.5-2.5 18.1 7 18.1 3.3 0 4.7-.6 7.5-3.4 9.7-9.7-4.5-24-14.5-14.7m113-1.5c-7.8 4.3-6.3 17 2.4 19.5 6.9 1.8 12.4-2 13.2-9.3 1-8.4-8.2-14.3-15.6-10.2m-168.6 31.4A29610 29610 0 0 1 266 281.9a30653 30653 0 0 1-131.5 125.3l-9 8.8H219v80l7.3-.2 7.2-.3v-93l-35.2-.3c-19.4-.1-35.3-.6-35.3-1s17-17 37.7-36.7l138.3-132c31-29.6 56.9-54.5 57.3-55.2.8-1.4-6.7-10.3-8.7-10.3-.6 0-4.2 3-8.1 6.8m5.3 45.6a22 22 0 0 0-16.4 23.4l.9 7.8c.1 1.6-6.4 8.5-25.8 27a5785 5785 0 0 0-49.7 48.3L270 349.3v121.3l-5.2 3.4c-19.7 13-7.7 44.9 15.7 41.7a22.7 22.7 0 0 0 12.3-39.4 23 23 0 0 0-6-4.2l-2.8-1V355.3l17.3-16.9c9.5-9.3 31.2-30.3 48.4-46.6l31-29.8 5.5 1.1c9.2 1.9 17.4-1.6 23.3-10a24 24 0 0 0 0-24.2 23 23 0 0 0-24.7-9.5m215.4-.4a24 24 0 0 0-13.9 10.7c-10 17 6.2 38.2 25.3 33.4l4.5-1.2 25.2 24.3 86 82.7 5.7 5.6 4.5-4.8c2.5-2.6 4.5-5 4.5-5.5 0-.8-21.3-21.5-92.2-89.5L626.2 252l1.4-4.6C632.5 231 617 215 600.2 219m1.8 12.3c-8 2.7-9.2 13.6-2 18.5 8.6 5.8 19.6-2.8 15.6-12.2-2.6-6-7.5-8.3-13.6-6.3m-217.2.8c-3 1.7-5 6.8-4.4 10.7 2.1 13.3 20.6 11.2 20.6-2.4 0-7.2-9.7-12.1-16.2-8.3M478 464c-6 1.5-11.7 7.2-10.4 10.6.3.7 2 2.2 3.8 3.3 5 2.9 6.7 6.3 7.6 15 .5 4.1 1.1 9 1.5 10.7.4 2.4 0 3.7-1.9 6-5.1 6-9.9-.7-6.6-9.3 1.4-3.7-.4-10-4.2-14.6-7.5-9-24-5-28 7-2 6.1-1.1 7.5 5.8 8.9 10 2 13.6 5.4 15.3 14.5 1.3 6.5.4 9.7-2.6 10.5q-5.3 1.2-5.4-5.8c0-11.8-10.6-16.1-20-8-6 5.1-7.1 8-6.9 17.5a38 38 0 0 1-1.6 13.8q-3.6 11.3 2.8 18.6c6 6.8 12.4 7.9 20.8 3.4 3-1.5 6.5-3.2 7.9-3.6l7-2.7c4.9-2.3 9.1-1.2 9.8 2.5.5 2.7-4.2 6.7-8 6.7a27 27 0 0 0-8.8 2.6c-3 1.5-8 3.4-11 4.3-6.2 2-7 3.6-5 10.3 1.5 5.3 5.3 9.4 10.4 11.3 5.8 2.2 10 .9 15.4-4.9 4-4.4 4.6-5.5 5.7-11.8 1-5.8 8.5-6.7 9.3-1 .6 3.7-6.8 17-12.1 21.8-4.2 3.8-4.7 4.6-3.6 6 4 4.9 15.2 6 21 2.1 8.3-5.6 8.6-7.6 8-41.5l-.3-27.2h-9.3c-10.2 0-11.9-.8-11.3-5.7l.3-2.8 10.3-.3 10.2-.3-.2-32.7-.3-32.7-2.5-1.2c-3.7-1.7-9-2.3-12.9-1.3m27.7 2c-1.5 1-1.7 6-1.6 65.8 0 35.6-.4 66-.8 67.7a32 32 0 0 1-9.4 15.6l-4 3.2V646l16-.2 16-.3.5-9.7c.5-12.3 1.8-17 6-21.6l3.2-3.6 12.2-.7c16.9-1 21-4.2 21.1-16.4 0-3.3.7-7.8 1.5-10s1.4-6 1.5-8.3c0-5 4.2-10.2 8-10.2 7.1 0 7.5-4.2 1-14.3a57 57 0 0 1-11.2-31 54 54 0 0 0-39.8-53c-6-1.9-17.6-2.2-20.2-.7m-233.3 17.1a11 11 0 0 0-2.6 17.1c6.4 7.2 18.1 2.5 18.1-7.2 0-7.6-9.3-13.5-15.5-9.9m163.3 43.6c-4.8 1.2 0 12.9 7.8 19 10 8 18.8 9.4 18.2 3-.3-3.3-2.6-5-8.1-6.2-3.4-.7-11.4-8.4-11.9-11.5-.4-2.6-3.5-4.9-6-4.3M693.2 572c-9.8 95.3-82.5 166.3-175.8 171.7l-11.4.6v149.8l116.8-.4 116.7-.3 8-2.2c28-8 51.5-27 63.5-51.7 10.3-21 10.1-18.7 9.8-160.3l-.3-118.3-63-.2-63.1-.2zm-460 111.8.3 120.7 2.3 6a36 36 0 0 0 24 23.5c6.2 2 9.4 2 90.9 2h84.5l-.4-46.2-.3-46.3-54.3.3-54.2.4V563h-93.1zm37.6-86.6a26 26 0 0 0-14 12.2c-4.9 11 .3 26.5 10.2 30.6l3 1.2v157.3l43.5-.4c41.7-.3 43.5-.2 44.1 1.5a23 23 0 0 0 20.8 13.8c13.3 0 22.6-9.5 22.6-22.9 0-24-32.1-31.7-42.4-10l-1.7 3.5-36.2-.2-36.2-.3-.3-71.1-.2-71.2 2.6-.6c3.8-1 11-8.8 12.3-13.2 5.3-19-9.6-35.1-28-30.2m492.2.2a23 23 0 0 0-15 21.5c-.1 8.7 4 15.4 12.9 21.2l2.4 1.6-.3 80.8c-.3 76.4-.4 81.2-2.2 87a38 38 0 0 1-24.8 24.5c-6 2-9 2-81.2 2H580l-1.9-3.7a22.8 22.8 0 0 0-35-6.7c-15.7 13.5-6.3 39.7 14.2 39.8 9 0 15.6-4 21-12.6l1.7-2.8h76.3c83.8 0 82 .1 93.8-6.1 7.5-4 16.8-13.4 21-21 6.6-12.6 6.3-8 6.6-99.1l.4-82.7 3.4-1.7c13.3-6.3 15.6-26.4 4.4-37.1a23 23 0 0 0-22.8-5M273.4 609c-3.7 1.5-6.4 5.9-6.4 10.4.1 8.4 8.3 13 16 9 11.5-5.8 2.4-24.3-9.6-19.4m492.1.2a11 11 0 0 0 1.3 20c12.2 4.6 20.1-14.1 8.5-20a12 12 0 0 0-9.8 0m-46.4 31.4a259 259 0 0 1-47.4 74.8 236 236 0 0 1-107.2 63.1c-3.9 1-7.3 2.1-7.8 2.5s-.4 3.9 0 7.8l.6 7.2h138.6l1.5 2.8c.8 1.5 2.7 3.9 4.3 5.3 17.3 16 44.6-.2 38.2-22.8-1.5-5.4-9-13.8-13.3-14.9l-2.6-.6-.1-54.7c-.1-30-.4-60-.8-66.5l-.6-12zM703.8 698a232 232 0 0 1-90 77.2 41 41 0 0 0-8.8 5c0 .4 20.4.7 45.3.7h45.2l2-4.3c1.9-3.7 8.3-9.8 11.5-10.9.7-.2 1-12 .8-38.2l-.3-37.8zm6.6 82.3c-7 7-2.6 17.5 7.3 17.6 8.1 0 13.4-8 9.9-14.8-3.7-7.2-11.6-8.4-17.2-2.8M371.1 783c-5 5-3.7 14 2.4 16.7 6.3 2.9 12.6.6 15.2-5.5 4.4-10.6-9.5-19.4-17.6-11.2m181.7 50.5a10.3 10.3 0 0 0 5 19.4c10.6 0 14.6-14.7 5.2-19.5a10 10 0 0 0-10.2 0m196.4 148c.2 22.8.1 41.5-.3 41.5s-2.9-1.8-5.5-4a71 71 0 0 0-45.9-15.4 79 79 0 0 0-46.8 13.1c-26.4 17.5-39 41.9-39 75.3-.1 28.2 7 46.5 24.8 64.5a78 78 0 0 0 56.6 24.3 66 66 0 0 0 36.7-6.8c7.6-3.8 21.2-14.1 21.2-16q.1-1 1-1c.6 0 1 4.3 1 11v11h36V940h-40.3zM2 1065.9V1179h52.1c56.4 0 64.1-.5 81.6-5.6a103 103 0 0 0 73.6-77.6c3.5-15 3.2-48.3-.6-62.7q-14.6-55.5-67.5-73c-18-6.1-20.5-6.3-82.4-6.8L2 952.8zm40.5-74.7c-.3.7-.4 34.8-.3 75.8l.3 74.5h33c30.7 0 33.6-.2 41.1-2.2a68 68 0 0 0 50-47.8c3.6-11.7 4-36.3 1-48a68 68 0 0 0-57-52.5c-9.4-1.5-67.5-1.3-68.1.3m264 12.7a85.4 85.4 0 0 0-73.5 72.4c-1.6 9.6-.8 30.9 1.5 39.6 10.3 39.3 45.6 65 89.6 65 27.4 0 46.7-6.8 63.9-22.7l5.5-5L382 1141a212 212 0 0 0-11.8-12.1c-.3 0-2.5 1.8-5 4a60 60 0 0 1-39.8 13.4c-26.4 0-47.2-15.1-52.9-38.7l-.6-2.7h130.3l-.6-15.7c-1-25.4-6.7-42.6-19.2-57.5a86 86 0 0 0-76-27.8m189.3 0c-44.6 6.6-73.8 41-74.1 87.5a83 83 0 0 0 24.3 63.3 88 88 0 0 0 63.5 26c29.4.9 48.4-5.4 67-22.1l6-5.4-5.2-5.9a211 211 0 0 0-11.5-12l-6.3-6.3-6 4.6c-26.6 20.4-67.2 16-83.9-9a55 55 0 0 1-7.6-18.4c0-1 11.3-1.3 65-1.3h65v-11.3c0-38-14.6-65.3-43-80.5a90 90 0 0 0-53.2-9.1m399.9 0a86.6 86.6 0 0 0-76.7 72c-1.6 10-.8 32.4 1.4 40.3a88 88 0 0 0 58.6 61.2 128 128 0 0 0 53.4.6 85 85 0 0 0 60.2-58.7c3.6-11.7 4.1-37.8 1-50.8-8-34.5-39-60.9-75.7-64.7-11-1.1-11-1.1-22.2 0M310 1037.8c-4.7.8-12.5 3.6-16 5.8a54 54 0 0 0-20.7 29.9l-.6 3.6H318c37.9 0 45.1-.2 45.1-1.4 0-7.6-8.8-23.2-16.3-29a52 52 0 0 0-36.7-9m188 .5a45 45 0 0 0-34 30.7c-1 3.4-2 6.6-2 7.2q-.1 1 45.6 1h45.7l-.7-4.2a48 48 0 0 0-22.7-30.4 51 51 0 0 0-31.9-4.3m194.6 1c-35.6 5.2-53 53.5-31 86 20 29.7 66.2 27 82.2-4.7a71 71 0 0 0 4.7-44.4 49 49 0 0 0-40-37c-7.9-1-7.8-1-16 .1m199 1.7c-24.7 8.5-38.5 36.7-32 65.5a48.4 48.4 0 0 0 79.2 28c18.4-15.1 22.6-52 8.4-74.2a45 45 0 0 0-26-19.5 67 67 0 0 0-29.6.2"/><path fill="#6e7683" fill-rule="evenodd" d="M503 4.3c4.1 4.4 5 5.2 5 4.4 0-.2-2.1-2.3-4.7-4.7l-4.8-4.5zm-21 10.5-5.5 5.7 5.8-5.5c5.3-5 6.2-6 5.4-6-.1 0-2.7 2.6-5.7 5.8m36 3.5a25 25 0 0 0 3.3 3.3l3.2 2.9-3-3.2c-2.7-3-3.5-3.8-3.5-3m21 20.2c1.9 2 3.6 3.5 3.9 3.5s-1-1.6-2.9-3.5c-1.9-2-3.6-3.5-3.9-3.5s1 1.6 2.9 3.5m-92 9.3-3.5 3.7 3.8-3.4a34 34 0 0 0 3.7-3.8c0-.8-.8 0-4 3.5M562.4 61c3.8 3.8 7.2 7 7.4 7s-2.6-3.2-6.4-7c-3.8-3.9-7.2-7-7.4-7s2.6 3.1 6.4 7m-135 5.3-5 5.2 5.3-5 5.2-5.2c0-.8-1 0-5.5 5m68.3 8.4c1.2.2 3 .2 4 0s-.1-.5-2.3-.4q-3.5 0-1.7.4M409 83.5a23 23 0 0 0-4 4.5c.4 0 2.6-2 5-4.5s4.2-4.5 4-4.5c-.4 0-2.6 2-5 4.5m190 11.8c4.1 4.4 5 5.2 5 4.4 0-.2-2.1-2.3-4.7-4.7l-4.8-4.5zM487.2 97q0 3 .5 1.8c.2-1 .2-2.6 0-3.5q-.5-1.3-.5 1.7M392 99.8l-3.4 3.7 3.8-3.4a34 34 0 0 0 3.7-3.8c0-.8-.8 0-4 3.5M661.3 124c0 15.1.2 21.3.3 13.8.2-7.6.2-20 0-27.6-.1-7.5-.3-1.3-.3 13.8m112-20.5c0 3.3.1 4.5.3 2.7s.2-4.5 0-6-.4 0-.4 3.3M620.5 116c2.1 2.2 4.1 4 4.4 4s-1.3-1.8-3.4-4-4.1-4-4.4-4 1.3 1.8 3.4 4M369 121.5a23 23 0 0 0-4 4.5c.4 0 2.6-2 5-4.5s4.2-4.5 4-4.5c-.4 0-2.6 2-5 4.5m122 2.8.5 6.2.3-5.4c.2-3 0-5.8-.5-6.2s-.6 2-.3 5.4m14.4 4.7c0 6.3.1 9 .3 5.8s.2-8.4 0-11.6-.3-.5-.3 5.8m267.8-4.5q0 2.6.5 1.2c.2-1 .2-2.3 0-3q-.5-.8-.5 1.8m.1 8.5c0 3 .2 4.3.4 2.8.2-1.6.2-4 0-5.6s-.4-.2-.4 2.8m-133.8 1c2.1 2.2 4.1 4 4.4 4s-1.3-1.8-3.4-4-4.1-4-4.4-4 1.3 1.8 3.4 4M350 139.5a23 23 0 0 0-4 4.5c.4 0 2.6-2 5-4.5s4.2-4.5 4-4.5c-.4 0-2.6 2-5 4.5m155.3 7q0 3.5.4 1.7c.2-1.2.2-3 0-4s-.5.1-.4 2.3m-74 5q0 3.5.4 1.7c.2-1.2.2-3 0-4s-.5.1-.4 2.3m110.9 0q0 2.6.5 1.2c.2-1 .2-2.3 0-3q-.5-.7-.5 1.8m-211.2 6a23 23 0 0 0-4 4.5c.4 0 2.6-2 5-4.5s4.2-4.5 4-4.5c-.4 0-2.6 2-5 4.5m174.5 31c0 19.8 0 28 .2 18.3s.2-26 0-36c-.1-10-.2-2.1-.2 17.7m-14-1c0 15.4 0 21.6.2 13.7s.2-20.5 0-28c-.1-7.5-.3-1.1-.3 14.3m-50.1-24.8c1 .2 2.3.2 3 0q.8-.5-1.8-.5t-1.2.5m-58.4 8-2.4 2.8 2.8-2.4c1.5-1.4 2.7-2.6 2.7-2.8q.1-1.3-3 2.4m229-.2c1.3 1.4 2.6 2.5 2.8 2.5q.3-.2-1.8-2.5a12 12 0 0 0-2.8-2.5q-.3.2 1.8 2.5m161.3 5c0 3.3.2 4.5.4 2.7s.2-4.5 0-6-.4 0-.4 3.3M434 185.8l.5 13.7.3-13c.1-7 0-13.2-.5-13.6s-.6 5.4-.3 12.9m-125-7-3.5 3.7 3.8-3.4a34 34 0 0 0 3.7-3.8c0-.8-.8 0-4 3.4m319.5 7.3a76 76 0 0 0 6.4 6 43 43 0 0 0-5.4-6 76 76 0 0 0-6.4-6 43 43 0 0 0 5.4 6m-24.5-4.7c0 .1 3.5 3.6 7.8 7.7l7.7 7.5-7.5-7.7c-7-7.2-8-8.3-8-7.5m-239 6.4-3.5 3.8 3.8-3.4a34 34 0 0 0 3.7-3.8c0-.8-.8 0-4 3.4m15 5-5.5 5.8 5.8-5.5c5.3-5 6.2-6 5.4-6-.1 0-2.7 2.6-5.7 5.8m-34 13-5.5 5.7 5.8-5.5c5.3-5 6.2-6 5.4-6-.1 0-2.7 2.6-5.7 5.8m283-.3c1.9 2 3.6 3.5 3.9 3.5s-1-1.6-2.9-3.5c-1.9-2-3.6-3.5-3.9-3.5s1 1.6 2.9 3.5M434.4 230c0 13.5.2 19 .3 12.3.2-6.8.2-17.8 0-24.6-.1-6.7-.3-1.2-.3 12.3M358 213.5a23 23 0 0 0-4 4.5c.4 0 2.6-2 5-4.5s4.2-4.5 4-4.5c-.4 0-2.6 2-5 4.5m-90 4a23 23 0 0 0-4 4.5c.4 0 2.6-2 5-4.5s4.2-4.5 4-4.5c-.4 0-2.6 2-5 4.5m505.3 4.5c0 3 .2 4.3.4 2.8.2-1.6.2-4 0-5.6s-.4-.2-.4 2.8m-105.8 1a42 42 0 0 0 5.4 5 29 29 0 0 0-4.4-5 42 42 0 0 0-5.4-5c-.3 0 1.7 2.3 4.4 5m-14 6c3.8 3.8 7.2 7 7.4 7s-2.6-3.2-6.4-7-7.2-7-7.4-7 2.6 3.2 6.4 7m-332.6.8-3.4 3.7 3.8-3.4a34 34 0 0 0 3.7-3.8c0-.8-.8 0-4 3.4m452.4 12.8c0 8.3.2 11.5.3 7.2.2-4.3.2-11 0-15-.1-4-.3-.4-.3 7.8m-436.4-9a23 23 0 0 0-4 4.5c.4 0 2.6-2 5-4.5s4.2-4.5 4-4.5c-.4 0-2.6 2-5 4.5m-89.6 3.8-2.9 3.2 3.3-3c3-2.7 3.7-3.5 2.9-3.5a25 25 0 0 0-3.3 3.3m153.8 4.2q0 2.6.5 1.2c.2-1 .2-2.3 0-3q-.5-.7-.5 1.8m271.3 5.5a42 42 0 0 0 5.4 5 29 29 0 0 0-4.4-5 42 42 0 0 0-5.4-5c-.3 0 1.7 2.3 4.4 5m15.5-4.7a25 25 0 0 0 3.3 3.3l3.2 2.9-3-3.2c-2.7-3-3.5-3.8-3.5-3m-387 6.2a23 23 0 0 0-4 4.5c.4 0 2.6-2 5-4.5s4.2-4.5 4-4.5c-.4 0-2.6 2-5 4.5m204.3 2.5c0 3.6.2 5 .4 3.3s.2-4.8 0-6.6-.4-.3-.4 3.3m120.7 1.3a25 25 0 0 0 3.3 3.3l3.2 2.9-3-3.2c-2.7-3-3.5-3.8-3.5-3m-399.5 5-4 4.2 4.3-4c2.3-2.1 4.2-4 4.2-4.2 0-.8-.9 0-4.5 4m85.5.2a23 23 0 0 0-4 4.5c.4 0 2.6-2 5-4.5s4.2-4.5 4-4.5c-.4 0-2.6 2-5 4.5m93 .3-2.5 2.7 2.8-2.4q3.7-3.3 2.4-3.1-.5.2-2.8 2.8m303.6 4.2c2.1 2.2 4.1 4 4.4 4s-1.3-1.8-3.4-4-4.1-4-4.4-4 1.3 1.8 3.4 4m-74.5-1.7a25 25 0 0 0 3.3 3.3l3.2 2.9-3-3.2c-2.7-3-3.5-3.8-3.5-3m55 2c0 .1 3.5 3.6 7.8 7.7l7.7 7.5-7.5-7.7c-7-7.2-8-8.3-8-7.5m-183.6 30.2c0 16.5.2 23.4.3 15.3.2-8 .2-21.6 0-30-.1-8.4-.3-1.8-.3 14.7m98.4-28.8c1.2.2 3.2.2 4.5 0q1.6-.4-2.3-.4-4 0-2.2.4m-324.8 6-5.5 5.8 5.8-5.5c5.3-5 6.2-6 5.4-6-.1 0-2.7 2.6-5.7 5.8m501-3.5a25 25 0 0 0 3.3 3.3l3.2 2.9-3-3.2c-2.7-3-3.5-3.8-3.5-3m-288.7 5.2q0 4.4.4 2.2a18 18 0 0 0 0-5c-.2-1.2-.4 0-.4 2.8m140.2 5.5a42 42 0 0 0 5.4 5 29 29 0 0 0-4.4-5 42 42 0 0 0-5.4-5c-.3 0 1.7 2.3 4.4 5M203 279.8l-6.5 6.7 6.8-6.5 6.7-6.7c0-.8-1 .2-7 6.4m88-2.2a23 23 0 0 0-4 4.5c.4 0 2.6-2 5-4.5s4.2-4.5 4-4.5c-.4 0-2.6 2-5 4.5m437 3c3.5 3.6 6.7 6.5 7 6.5s-2.5-3-6-6.5a69 69 0 0 0-7-6.5c-.2 0 2.5 3 6 6.5M491.4 297c0 10.2.2 14.3.3 9.3.2-5.1.2-13.5 0-18.6-.1-5-.3-.9-.3 9.3m-159-8.7-5.9 6.2 6.3-6c5.8-5.5 6.7-6.5 6-6.5-.2 0-3 2.8-6.3 6.3m328.5-1.8c1.3 1.4 2.6 2.5 2.8 2.5.3 0-.5-1.1-1.8-2.5a12 12 0 0 0-2.8-2.5c-.3 0 .5 1.1 1.8 2.5m56 3c3 3 5.7 5.5 6 5.5s-2-2.5-5-5.5-5.7-5.5-6-5.5 2 2.5 5 5.5m88 1c3.5 3.6 6.7 6.5 7 6.5s-2.5-3-6-6.5a69 69 0 0 0-7-6.5c-.2 0 2.5 3 6 6.5m-549.5 1.8-4 4.2 4.3-4c3.9-3.6 4.7-4.5 3.9-4.5-.2 0-2 2-4.2 4.3m91 2-4 4.2 4.3-4c3.9-3.6 4.7-4.5 3.9-4.5-.2 0-2 2-4.2 4.3m-162 3-4 4.2 4.3-4c3.9-3.6 4.7-4.5 3.9-4.5-.2 0-2 2-4.2 4.3m493.5 5.2c3.5 3.6 6.7 6.5 7 6.5s-2.5-3-6-6.5a69 69 0 0 0-7-6.5c-.2 0 2.5 3 6 6.5m-410-2.7-2.5 2.7 2.8-2.4c1.5-1.4 2.7-2.6 2.7-2.8q.1-1.3-3 2.4m390 2.8c3 3 5.7 5.5 6 5.5s-2-2.5-5-5.5-5.7-5.5-6-5.5 2 2.5 5 5.5m94.5 1.5c2.1 2.2 4.1 4 4.4 4s-1.3-1.8-3.4-4-4.1-4-4.4-4 1.3 1.8 3.4 4m-21.5-1.7a25 25 0 0 0 3.3 3.3l3.2 2.9-3-3.2c-2.7-3-3.5-3.8-3.5-3m-319.7 1.4c2 .2 5.4.2 7.4 0 2.1-.2.4-.4-3.7-.4s-5.8.2-3.7.4m20 0c1 .2 2.3.2 3 0q.8-.5-1.8-.5t-1.2.5m388.7.6a25 25 0 0 0 3.3 3.3l3.2 2.9-3-3.2c-2.7-3-3.5-3.8-3.5-3m-584 6.2a23 23 0 0 0-4 4.5c.4 0 2.6-2 5-4.5s4.2-4.5 4-4.5c-.4 0-2.6 2-5 4.5m-70.5 4.8-5 5.2 5.3-5 5.2-5.2c0-.8-1 0-5.5 5m159.5-.8a23 23 0 0 0-4 4.5c.4 0 2.6-2 5-4.5s4.2-4.5 4-4.5c-.4 0-2.6 2-5 4.5m-78 5a23 23 0 0 0-4 4.5c.4 0 2.6-2 5-4.5s4.2-4.5 4-4.5c-.4 0-2.6 2-5 4.5m169.8-1.8c5.6.2 14.8.2 20.4 0 5.7-.1 1-.3-10.2-.3-11.3 0-15.9.2-10.2.3m353.7 3.3c2.1 2.2 4.1 4 4.4 4s-1.3-1.8-3.4-4-4.1-4-4.4-4 1.3 1.8 3.4 4M296 323.5a23 23 0 0 0-4 4.5c.4 0 2.6-2 5-4.5s4.2-4.5 4-4.5c-.4 0-2.6 2-5 4.5m541-3.2a25 25 0 0 0 3.3 3.3l3.2 2.9-3-3.2c-2.7-3-3.5-3.8-3.5-3m-157 3.2c1.3 1.4 2.6 2.5 2.8 2.5.3 0-.5-1.1-1.8-2.5a12 12 0 0 0-2.8-2.5c-.3 0 .5 1.1 1.8 2.5m78.5 5.5a76 76 0 0 0 6.4 6 43 43 0 0 0-5.4-6 76 76 0 0 0-6.4-6 43 43 0 0 0 5.4 6m-253.2 2c0 3.6.2 5 .4 3.3s.2-4.8 0-6.6-.4-.3-.4 3.3m-359.8 3.3-6 6.2 6.3-6c5.8-5.5 6.7-6.5 6-6.5-.2 0-3 2.8-6.3 6.3m68.4-2.6-3.4 3.8 3.8-3.4c3.4-3.3 4.2-4.1 3.4-4.1-.2 0-1.9 1.7-3.8 3.8m573.6 5.2a76 76 0 0 0 6.4 6 43 43 0 0 0-5.4-6 76 76 0 0 0-6.4-6 43 43 0 0 0 5.4 6m-78.5-4.7a25 25 0 0 0 3.3 3.3l3.2 2.9-3-3.2c-2.7-3-3.5-3.8-3.5-3M861.5 344c2.1 2.2 4.1 4 4.4 4s-1.3-1.8-3.4-4-4.1-4-4.4-4 1.3 1.8 3.4 4m-83.5 3.3c4.1 4.4 5 5.2 5 4.4 0-.2-2.1-2.3-4.7-4.7l-4.8-4.5zm-583 2.4-5.5 5.8 5.8-5.5c5.3-5 6.2-6 5.4-6-.1 0-2.7 2.6-5.7 5.8m516.5 4.2c5 5 9.2 9 9.5 9 .2 0-3.6-4-8.5-9s-9.2-9-9.5-9c-.2 0 3.6 4 8.5 9m-582-4.7-3 3.2 3.3-3c3-2.7 3.7-3.5 2.9-3.5a25 25 0 0 0-3.3 3.3m603.1 5.7a42 42 0 0 0 5.4 5 29 29 0 0 0-4.4-5 42 42 0 0 0-5.4-5c-.3 0 1.7 2.3 4.4 5m-227.3-1.2-.2 3.2 6.3-.2 6.2-.2-5.7-.3c-5.3-.4-5.7-.6-6-3.1q-.6-3.8-.7.6M205 359.5a23 23 0 0 0-4 4.5c.4 0 2.6-2 5-4.5s4.2-4.5 4-4.5c-.4 0-2.6 2-5 4.5m158.3-2.7c20.3.1 53.1.1 73 0 20-.2 3.3-.3-36.8-.3s-56.4.1-36.2.3m446.7 1.7c1.3 1.4 2.6 2.5 2.8 2.5.3 0-.5-1.1-1.8-2.5a12 12 0 0 0-2.8-2.5c-.3 0 .5 1.1 1.8 2.5m-18 1.8a25 25 0 0 0 3.3 3.3l3.2 2.9-3-3.2c-2.7-3-3.5-3.8-3.5-3m93.5 6.7c3.8 3.9 7.2 7 7.4 7s-2.6-3.1-6.4-7-7.2-7-7.4-7 2.6 3.1 6.4 7m-778 3.3-3 3.2 3.3-3a25 25 0 0 0 3.2-3.2c0-.8-.8 0-3.6 3m719.1 3.7c2.1 2.2 4.1 4 4.4 4s-1.3-1.8-3.4-4-4.1-4-4.4-4 1.3 1.8 3.4 4m-166.5-.5c1.3 1.4 2.6 2.5 2.8 2.5.3 0-.5-1.1-1.8-2.5a12 12 0 0 0-2.8-2.5c-.3 0 .5 1.1 1.8 2.5M342 551v176l88.8-.2 88.7-.3 11.3-2.4q11.6-2.4 10-3.3-1.2-.9 2-.3t2.9-.2 2-.5q2.8.7 1.8-.8-.8-1.3.4-.6c1.5 1 7.3-.3 6.6-1.4q-.3-.7 1.7-.2 2.1.5 1.4-.6-.6-1.2.7-.6c3.5 1.3 33.7-13.4 39-19q2.7-2.6 1.6-1.2c-2.3 3.3 6.8-3.5 16.6-12 9.9-8.8 26-27.9 24.9-29.6q-.6-1 .3-.5c1.3.8 7.5-9 6.7-10.5q-.6-1 .3-.5c2 1.3 15.9-30.6 14.7-33.8q-.7-1.7.3-1.2c1.3.8 3.8-8.2 6.6-23.7 1.7-9.6 2.1-16.2 2.2-32.1 0-19.8-2-42.2-3.5-38q-.6 2.6-1.4-1.9c-.4-2-.5-4-.2-4.4q.5-.3.6 1.8 0 2 .6 1.8c.3-.3.2-2.3-.2-4.3q-.7-4-1.6-2.3-1 1.3-.3-1.5c1.1-5.4-12.8-41.7-19-49.2q-2.3-3.1-.4.5 1.4 2.9-.1 1.3a6 6 0 0 1-1.4-3.5q-.2-2.1-1.5-2-1.1.1-.6-.8c.9-1.4-3.4-7.2-4.7-6.4q-1 .6-.4-.4c1.5-2.5-26.9-32.3-29.4-30.7q-.9.4-1.6-.6-.8-1.2.7-.4 1.8 1.3 0-.9c-.8-1-2-1.5-2.6-1.2-.6.2-1.8 0-2.6-.6q-1.7-1.2.4-.4c2.6.8 2.1.2-2.8-3.3-2.5-1.8-5-3-5.5-2.6q-1 .5-.8-.7t-1.4-1.2-1.3-.6c2-3.1-46.6-21.3-52.6-19.7-1 .3-1.7.1-1.3-.4q.5-.9-.3-1l-12.8-1.4c-9.6-1.1-29.2-1.4-97.7-1.5H342zm327-168.7c2.4 2.6 4.5 4.7 4.7 4.7.8 0 0-.9-4.5-5l-4.7-4.5zm149.5 3.7a76 76 0 0 0 6.4 6 43 43 0 0 0-5.4-6 76 76 0 0 0-6.4-6 43 43 0 0 0 5.4 6m85-2c2.1 2.2 4.1 4 4.4 4s-1.3-1.8-3.4-4-4.1-4-4.4-4 1.3 1.8 3.4 4m-749 4.3-4 4.2 4.3-4c3.9-3.6 4.7-4.5 3.9-4.5-.2 0-2 2-4.2 4.3m690.5 3.2c3 3 5.7 5.5 6 5.5s-2-2.5-5-5.5-5.7-5.5-6-5.5 2 2.5 5 5.5m-10.6 9.3c.5.8-3.6 1.2-14.6 1.5l-15.3.3 15.8.2c14.6.2 17.9-.4 14.5-2.4q-1-.6-.4.4m-696.5 3-2.4 2.7 2.8-2.4q3.7-3.3 2.4-3.1a16 16 0 0 0-2.8 2.8m52.4-1.1c1 .2 2.5.2 3.4 0q1.3-.5-1.7-.5-3.1 0-1.7.5m7.4 0c1.3.2 3.3.2 4.6 0q1.6-.4-2.3-.4c-2.5 0-3.5.2-2.2.4m13 0c3.4.2 9 .2 12.4 0s.7-.3-6.2-.3-9.7.1-6.2.3m-141.4 3.6-2.9 3.2 3.3-3a25 25 0 0 0 3.2-3.2c0-.8-.8 0-3.6 3m568.6 4.2c1.9 2 3.6 3.5 3.9 3.5s-1-1.6-2.9-3.5c-1.9-2-3.6-3.5-3.9-3.5s1 1.6 2.9 3.5M233.4 438c0 13.5.2 19 .3 12.3.2-6.8.2-17.8 0-24.6-.1-6.7-.3-1.2-.3 12.3m711.1-15c2.1 2.2 4.1 4 4.4 4s-1.3-1.8-3.4-4-4.1-4-4.4-4 1.3 1.8 3.4 4M393 550.4V678h53.3c66.4 0 81.4-1.4 99.3-9 2.6-1.2 5.4-1.8 6.1-1.6q1.3.4.9-.2c-.7-1.2 8.3-5.4 9.7-4.6q1 .6.5 0c-.4-.5 3.5-3.8 8.6-7.3s12.9-10 17.2-14.6a58 58 0 0 1 8.9-8.2q.9-.2.8-1.5c-.1-.8.7-2.6 1.8-4q1.8-2.2 1.3-1.1-.7 1.5.5.7 1-.7.6-1.6c-.3-.5.8-3 2.4-5.7 4.8-7.9 9.9-19.3 12.4-28 1.3-4.6 2.6-8 2.9-7.8s.3-.7 0-2.2q-.3-3 .6-1.4 1 1.5.9-3c0-2.4.4-10 1.1-16.8 1-9.3 1-15.1.1-23.3a67 67 0 0 1-.5-12.4q.5-1.3-.3-1c-.5.3-1.2-1.6-1.6-4.2-1-7.1-7.2-24.9-11-32-2-3.5-3.3-6.8-3-7.3q.5-.8-.3-.7c-1.3.4-7.2-8.4-6.5-9.6q.4-.8-.5-.2c-1.3.8-3.5-2.8-2.4-4q.6-.6-.4 0c-.7.3-2.7-1.3-4.8-3.8A105 105 0 0 0 567 442c-4.4-2.6-7.7-5-7.3-5.4q.5-.6-.8-.1c-.9.3-2.7-.5-4.3-2-1.5-1.4-3.2-2.5-3.9-2.5s0 .7 1.3 1.5c3 1.7 2 2-1.4.4q-2.3-1.2-2-2.2.6-.9-.5-.3a24 24 0 0 1-8.9-1.8c-17.4-5.8-17.7-5.8-84.5-6.3l-61.7-.4zm570-109.9c1.9 2 3.6 3.5 3.9 3.5s-1-1.6-2.9-3.5c-1.9-2-3.6-3.5-3.9-3.5s1 1.6 2.9 3.5m-937 7a23 23 0 0 0-4 4.5c.4 0 2.6-2 5-4.5s4.2-4.5 4-4.5c-.4 0-2.6 2-5 4.5m955.4 10.2 1.9 2.3-80.4.3-80.4.2 80.8.3c44.4 0 80.7-.2 80.7-.6q-.2-1-2.2-2.8l-2.3-1.9zm-927.6 3c22 .2 58.3.2 80.5 0 22-.1 4-.2-40.3-.2s-62.4.1-40.2.3m440.4 39-.2 32.1-9.7.4-9.8.3 9.8.2c7 .1 9.9-.1 10.2-1s.4-15.5.3-32.8l-.3-31.5zM175.5 623.5c0 81.4.1 114.6.3 73.7v-148c-.2-40.5-.3-7.1-.3 74.3M550 480.3c2.4 2.6 4.5 4.7 4.7 4.7.8 0 0-.9-4.5-5l-4.7-4.5zm-316.7 9.2q0 3.5.4 1.7c.2-1.2.2-3 0-4s-.5.1-.4 2.3m33 3.5q0 3 .4 1.8c.2-1 .2-2.6 0-3.6s-.5-.1-.5 1.8m22 0q0 3 .5 1.8c.2-1 .2-2.6 0-3.6s-.5-.1-.5 1.8m216 3q0 3 .5 1.8c.2-1 .2-2.6 0-3.6s-.5-.1-.5 1.8m-280.4-.3c1.8.2 4.5.2 6 0s0-.4-3.3-.4-4.5.2-2.7.4m518.5 10c6.5.2 16.9.2 23 0 6.2-.1.9-.3-11.8-.3-12.6 0-17.7.2-11.2.3m-312.4 9-2.4 2.8 2.8-2.4q3.7-3.3 2.4-3.1a16 16 0 0 0-2.8 2.8m-154.6 1c1.5.1 3.7.1 5-.1s0-.4-2.8-.4-3.8.2-2.2.4m150 10.8q0 3.5.4 1.7c.2-1.2.2-3 0-4s-.5.1-.4 2.3m268 12c0 3.3.2 4.5.4 2.7s.2-4.5 0-6-.4 0-.4 3.3m-349.9 14c0 7.7.2 10.7.3 6.7.2-4 .2-10.3 0-14s-.3-.4-.3 7.3m136.9-11.8c2.6.2 6.7.2 9 0s.1-.3-4.8-.3c-5 0-6.8.1-4.2.3m14.1 22.8c0 12.6.2 17.7.3 11.2.2-6.5.2-16.9 0-23-.1-6.2-.3-.9-.3 11.8m-247-14.8c14.7.2 38.5.2 53 0 14.3-.1 2.3-.2-26.9-.2s-41 0-26.2.2m-11.5 14c1.8.2 4.5.2 6 0s0-.4-3.3-.4-4.5.2-2.7.4m28 0c10 .2 26.3.2 36 0 9.7-.1 1.5-.2-18.3-.2s-27.8 0-17.7.2m429.4 4.3q0 3 .5 1.8c.2-1 .2-2.6 0-3.5q-.5-1.3-.5 1.7m-228.8 27.3-2.9 3.2 3.3-3c3-2.7 3.7-3.5 2.9-3.5a25 25 0 0 0-3.3 3.3m-188.6 2.4c1.2.2 3 .2 4 0s-.1-.5-2.3-.4q-3.5 0-1.7.4m492 0c1.2.2 3.2.2 4.5 0q1.6-.4-2.3-.4-4 0-2.2.4m-278.9 11-2.4 2.8 2.8-2.4q3.7-3.3 2.4-3.1a16 16 0 0 0-2.8 2.8m-14.1 5h4.4q1.8-.5-2.2-.5t-2.2.4M266.2 619q0 3 .5 1.8c.2-1 .2-2.6 0-3.5q-.5-1.3-.5 1.7m22 .5q.1 3.5.5 1.7c.2-1.2.2-3 0-4s-.5.1-.4 2.3m471-.5q0 3 .4 1.8c.2-1 .2-2.6 0-3.5q-.5-1.3-.5 1.7m-269.8-.7c-.2.7-.3 7.4-.2 14.8l.3 13.4.5-14.8c.5-14.5.4-16-.6-13.4m33 20.2c0 3.3.1 4.5.3 2.7s.2-4.5 0-6-.4 0-.4 3.3m263.6-2.7-2.4 2.7 2.8-2.4q3.7-3.3 2.4-3.1a16 16 0 0 0-2.8 2.8m-8.4 5.5c-.3.6-.4 36.8-.3 80.2l.3 79 .5-80.2c.3-44.2.4-80.3.2-80.3q-.3.1-.7 1.3M283.3 648c0 3.6.2 5 .4 3.3s.2-4.8 0-6.5-.4-.4-.4 3.2m440.2 42.5c0 20.4 0 28.5.2 18.2s.2-27 0-37c-.1-10-.2-1.6-.2 18.8m-84.5-2a70 70 0 0 0-7 7.5c.3 0 3.9-3.4 8-7.5s7.2-7.5 7-7.5-3.9 3.4-8 7.5M283.5 729c0 22.3 0 31.4.2 20.3.2-11.2.2-29.4 0-40.5-.1-11.2-.2-2-.2 20.2m383-7.7-4 4.2 4.3-4c3.9-3.6 4.7-4.5 3.9-4.5-.2 0-2 2-4.2 4.3m-323.2 1.2q0 3.5.4 1.7c.2-1.2.2-3 0-4s-.5.1-.4 2.3m323.6 17.3-2.4 2.7 2.8-2.4q3.7-3.3 2.4-3.1a16 16 0 0 0-2.8 2.8m56.3 2.2q0 3 .5 1.8c.2-1 .2-2.6 0-3.5q-.5-1.3-.5 1.7m-381.5 1.7c7.9.2 20.7.2 28.6 0 7.8-.1 1.4-.3-14.3-.3s-22 .2-14.2.3m61.5 0c3.2.2 8.1.2 11 0s.3-.3-5.8-.3-8.4.1-5.2.3m49 0c1 .2 2.3.2 3 0q.8-.5-1.8-.5t-1.2.5m57.5 0c2.3.2 6 .2 8 0s.1-.4-4.3-.4-6 .2-3.7.4M434.3 759c0 3 .2 4.3.4 2.8.2-1.6.2-4 0-5.5-.2-1.6-.4-.3-.4 2.7m266.6 12.8-2.4 2.7 2.8-2.4q3.7-3.3 2.4-3.1a16 16 0 0 0-2.8 2.8M175.4 784c0 6.9.1 9.7.3 6.3.2-3.5.2-9.1 0-12.5s-.3-.7-.3 6.2m201.9-4.3c1 .2 2.3.2 3 0q.8-.5-1.8-.5t-1.2.5m178.9 4.8q0 2.6.5 1.2c.2-1 .2-2.3 0-3q-.5-.8-.5 1.8m-64.8 8.5c0 5.2.1 7.4.3 4.8s.2-7 0-9.5c-.2-2.7-.3-.5-.3 4.7m89.4 2.7c12.3.2 32 .2 44 0 12-.1 1.9-.2-22.3-.2s-34 0-21.7.2m72 0c1.7.2 4.7.2 6.5 0s.3-.4-3.3-.4-5 .2-3.2.4m21.2 0c10.8.7 22.8.7 22.3 0-.2-.4-6.4-.6-13.6-.5-7.3 0-11.2.3-8.7.5M233.2 800q0 3 .5 1.8c.2-1 .2-2.6 0-3.5q-.5-1.3-.5 1.7m483-1.3c1 .2 2.6.2 3.5 0q1.3-.5-1.7-.5-3.1 0-1.7.5m104 7.3q0 3 .4 1.8c.2-1 .2-2.6 0-3.5q-.5-1.3-.5 1.7m-443 7.7c1 .2 2.4.2 3 0q1-.5-1.7-.5-2.6 0-1.2.5m164.1 13.5-2.9 3.3 3.3-3a25 25 0 0 0 3.2-3.2c0-.8-.8 0-3.6 3M233.5 834c2.1 2.2 4.1 4 4.4 4s-1.3-1.8-3.4-4-4.1-4-4.4-4 1.3 1.8 3.4 4m346.4 2.3c.4.4 8.8.6 18.7.5l17.9-.3-18.7-.5a99 99 0 0 0-18 .3m-291.6.4c10.8.2 28.8.2 40 0 11.2-.1 2.3-.2-19.7-.2s-31.1 0-20.3.2m65 0c1.6.2 3.8.2 5 0s0-.4-2.7-.4-3.8.2-2.2.4m14.5 0c2.9.2 7.4.2 10 0s.2-.3-5.3-.3-7.6.1-4.7.3m28.4 0c7 .2 18.7.2 26 0 7.3-.1 1.6-.3-12.7-.3s-20.3.2-13.3.3m232 0c1.6.2 4 .2 5.5 0 1.6-.2.3-.4-2.7-.4s-4.3.2-2.7.4m35.5 0c11.6.2 30.8.2 42.5 0 11.6-.1 2-.2-21.3-.2s-33 0-21.2.2M449.3 843c0 3.6.2 5 .4 3.3s.2-4.8 0-6.5-.4-.4-.4 3.2m119 0q0 3 .4 1.8c.2-1 .2-2.6 0-3.5q-.5-1.3-.5 1.7m-272 7.7c1 .2 2.6.2 3.6 0s.1-.5-1.8-.5q-3.1 0-1.7.5m111.5 0c1.2.2 3 .2 4 0s-.1-.5-2.3-.4q-3.5 0-1.7.4m83.6 9.8c0 5.5.1 7.6.3 4.7s.2-7.4 0-10-.3-.2-.3 5.3m64.9 5.2c1 .2 2.5.2 3.5 0s.1-.5-1.8-.5q-3.1 0-1.7.5m212.4 74c20 .3 20.2.4 20.6 2.6q.4 2.9.6-.5l.1-2.8-20.7.2-20.8.3zm20.6 9.8q0 4.4.4 2.2a18 18 0 0 0 0-5c-.2-1.2-.4 0-.4 2.8m-788 116.2c-.2 62.2 0 113.4.5 113.6.6.5.6-77.7 0-185.8-.2-22.5-.4 10-.6 72.2m108-112c1 .2 2.4.2 3 0q1-.5-1.7-.5-2.6 0-1.2.5m680 25.3c0 4.7.2 6.6.4 4.3.2-2.4.2-6.2 0-8.5-.2-2.4-.4-.5-.4 4.2m0 13q0 3 .4 1.8c.2-1 .2-2.6 0-3.5q-.5-1.3-.5 1.7m-729-1.3c8.7.2 22.9.2 31.6 0 8.6-.1 1.5-.3-15.8-.3s-24.4.2-15.7.3m248 13c1 .2 2.3.2 3 0q.8-.5-1.8-.5-2.5 0-1.2.5m189 0c1 .2 2.3.2 3 0q.8-.5-1.8-.5t-1.2.5m19 0c1 .2 2.3.2 3 0q.8-.5-1.8-.5t-1.2.5m381.5 0c1.2.2 3 .2 4 0s-.1-.5-2.3-.4q-3.5 0-1.7.4m16 0c1.2.2 3 .2 4 0s-.1-.5-2.3-.4q-3.5 0-1.7.4m-871.4 32.8c0 17 .2 24.2.3 15.8.2-8.3.2-22.3 0-31-.1-8.7-.3-1.8-.3 15.2m706.9-22q0 4.4.4 2.2a18 18 0 0 0 0-5c-.2-1.2-.4 0-.4 2.8m-493.8 14.8-5 5.2 5.3-5 5.2-5.2c0-.8-1 0-5.5 5m533.7-1.8q0 2.6.5 1.2c.2-1 .2-2.3 0-3q-.5-.8-.5 1.8m-154.8 1.8-2.9 3.2 3.3-3a25 25 0 0 0 3.2-3.2c0-.8-.8 0-3.6 3m155 14.2c0 6.6.1 9.2.3 5.7s.2-8.8 0-12-.3-.3-.3 6.3m-90.1-4.8c1 .2 2.5.2 3.5 0s.1-.5-1.8-.5q-3.1 0-1.7.5m-224.9 12.5-2.9 3.3 3.3-3a25 25 0 0 0 3.2-3.2c0-.8-.8 0-3.6 3m-262 14.2c0 6.6.1 9.2.3 5.7s.2-8.8 0-12-.3-.3-.3 6.3m-43.1-6c0 2.8.2 3.8.4 2.2a18 18 0 0 0 0-5c-.2-1.2-.4 0-.4 2.8m0 13c0 2.8.2 3.8.4 2.2a18 18 0 0 0 0-5c-.2-1.2-.4 0-.4 2.8m-126.8 31c0 19.3 0 27 .2 17.2s.2-25.6 0-35c-.1-9.5-.2-1.5-.2 17.8m568.7-22q0 2.6.5 1.2c.2-1 .2-2.3 0-3q-.5-.8-.5 1.8m-190 1q0 2.6.5 1.2c.2-1 .2-2.3 0-3q-.5-.8-.5 1.8m396.2 10c0 5.5.1 7.6.3 4.7s.2-7.4 0-10-.3-.2-.3 5.3m-586 0c0 5 .1 7.1.3 4.8a65 65 0 0 0 0-9c-.2-2.6-.3-.7-.3 4.2m765 0c0 4.4.1 6 .3 3.7s.2-6 0-8-.4-.1-.4 4.3m-404 2c0 5 .2 7.1.4 4.8a65 65 0 0 0 0-9c-.2-2.6-.3-.7-.3 4.2m363-2c0 3.8.1 5.3.3 3.2s.2-5.2 0-7-.4 0-.4 3.8m-553 .5c0 3.6.2 5 .4 3.3s.2-4.8 0-6.5-.4-.4-.4 3.2m209 10q0 3 .4 1.8c.2-1 .2-2.6 0-3.5q-.5-1.3-.5 1.7m-190 .5q0 2.6.5 1.2c.2-1 .2-2.3 0-3q-.5-.8-.5 1.8m50.8 24.8a25 25 0 0 0 3.3 3.3l3.2 2.9-3-3.2c-2.7-3-3.5-3.8-3.5-3m263 3.5-2.5 2.7 2.8-2.4q3.7-3.3 2.4-3.1a16 16 0 0 0-2.8 2.8m-169.4 3.2c2.1 2.2 4.1 4 4.4 4s-1.3-1.8-3.4-4-4.1-4-4.4-4 1.3 1.8 3.4 4m-466.2 6.7c1 .2 2.5.2 3.5 0s.1-.5-1.8-.5q-3.1 0-1.7.5m81.7 5.8a23 23 0 0 0-4 4.5c.4 0 2.6-2 5-4.5s4.2-4.5 4-4.5c-.4 0-2.6 2-5 4.5m207-.2c2.4 2.6 4.5 4.7 4.7 4.7.8 0 0-.9-4.4-5l-4.8-4.5zm2 9.5-2.5 2.7 2.8-2.4c1.5-1.4 2.7-2.6 2.7-2.8q.1-1.3-3 2.5m243-2.5a25 25 0 0 0 3.3 3.3l3.2 2.9-3-3.2c-2.7-3-3.5-3.8-3.5-3"/></svg>